<svg xmlns="http://www.w3.org/2000/svg" xml:space="preserve" width="1500" height="1500" data-id="lg_zl9kYDpIjIGVnFPFRc" data-version="1" viewBox="0 0 1500 1500"><path fill="#ffac75" stroke="transparent" d="M0 0h1500v1500H0z"/><g data-padding="20"><g transform="translate(-569.073 -582.291)scale(1.71898)"><g transform="translate(470.2 400.01)"><filter id="a" width="140%" height="140%" x="-20%" y="-20%"><feGaussianBlur in="SourceAlpha"/><feOffset result="oBlur"/><feFlood flood-color="#f75cff" flood-opacity="1"/><feComposite in2="oBlur" operator="in"/><feMerge><feMergeNode/><feMergeNode in="SourceGraphic"/></feMerge></filter><g filter="url(#a)"><rect width="420.599" height="144.64" x="156.809" y="302.716" fill="none" rx="0" ry="0"/><path fill="#fff" d="M191.958 414.746h-25.86v-89.6h61.44v23.55h-35.58v13.7h31.61v22.53h-31.61Zm68.62 1.92q-6.4 0-11.72-2.56-5.31-2.56-8.51-7.39t-3.2-11.68q0-5.95 2.91-10.43 2.92-4.48 8.61-7.33 5.7-2.85 14.11-3.87 8.42-1.03 19.43-.13l.13 15.23q-4.36-.96-8.32-1.18-3.97-.23-7.04.35-3.08.57-4.87 2.01t-1.79 3.88q0 2.62 2.11 3.9t5.51 1.28q3.07 0 5.53-1.02 2.47-1.03 3.94-3.17 1.47-2.15 1.47-5.54v-13.57q0-3.07-1.22-5.47-1.21-2.4-4.09-3.77-2.88-1.38-8-1.38t-10.15 1.54q-5.02 1.53-8.8 4.35l-6.27-17.03q6.66-4.03 14.4-6.04 7.75-2.02 15.3-2.02 9.53 0 17.02 3.04t11.81 9.54q4.32 6.49 4.32 16.86v39.68h-21.76v-6.53q-3.07 4.03-8.45 6.24-5.37 2.21-12.41 2.21m87.86 0q-11.91 0-18.56-6.62-6.66-6.63-6.66-19.49v-61.19h25.6v18.82h13.83v19.97h-13.83v18.43q0 4.22 2.18 5.95 2.17 1.73 5.12 1.73 1.85 0 3.77-.48t3.65-1.44l2.82 19.84q-3.14 1.79-7.84 3.14-4.71 1.34-10.08 1.34m-23.17-48.51h-13.82v-19.97h13.82Zm77.82 46.59h-25.6v-66.56h25.6v7.68q2.18-3.07 5.32-5.22 3.13-2.14 6.75-3.26 3.61-1.12 7.26-1.12 6.72 0 12 3.1 5.28 3.11 7.07 8.68 3.27-5.7 9.86-8.74t14.46-3.04q9.92 0 15.49 3.71t7.84 9.67q2.27 5.95 2.27 12.73v42.37h-25.6v-35.07q0-4.74-2.43-7.55-2.43-2.82-6.91-2.82-2.82 0-4.9 1.12t-3.2 2.91-1.12 3.91v37.5h-25.6v-35.07q0-4.74-2.43-7.55-2.43-2.82-6.91-2.82-2.82 0-4.9 1.12t-3.2 2.91-1.12 3.91Zm122.5 1.92q-6.4 0-11.71-2.56t-8.51-7.39-3.2-11.68q0-5.95 2.91-10.43t8.61-7.33q5.69-2.85 14.11-3.87 8.41-1.03 19.42-.13l.13 15.23q-4.35-.96-8.32-1.18-3.97-.23-7.04.35-3.07.57-4.86 2.01-1.8 1.44-1.8 3.88 0 2.62 2.12 3.9 2.11 1.28 5.5 1.28 3.07 0 5.54-1.02 2.46-1.03 3.93-3.17 1.47-2.15 1.47-5.54v-13.57q0-3.07-1.21-5.47-1.22-2.4-4.1-3.77-2.88-1.38-8-1.38t-10.14 1.54q-5.03 1.53-8.8 4.35l-6.27-17.03q6.65-4.03 14.4-6.04 7.74-2.02 15.29-2.02 9.54 0 17.03 3.04 7.48 3.04 11.8 9.54 4.32 6.49 4.32 16.86v39.68h-21.76v-6.53q-3.07 4.03-8.44 6.24-5.38 2.21-12.42 2.21"/></g></g><rect width="71.912" height="71.912" x="200.888" y="206.003" fill="#fff" rx="10" ry="10" transform="translate(175.73 399.91)scale(1.55)"/></g><path fill="transparent" stroke="transparent" stroke-width="1.783" d="M250 620.766h1000v258.468H250z"/></g></svg>